<mxfile host="app.diagrams.net" modified="2024-03-04T15:50:14.670Z" agent="Mozilla/5.0 (Macintosh; Intel Mac OS X 10_15_7) AppleWebKit/537.36 (KHTML, like Gecko) Chrome/122.0.0.0 Safari/537.36" etag="ul7ytXH3XlKFXV28OzW9" version="24.0.1" type="device">
  <diagram name="Page-1" id="ALHU9boJSzq7qAD3mDRn">
    <mxGraphModel dx="741" dy="406" grid="1" gridSize="10" guides="1" tooltips="1" connect="1" arrows="1" fold="1" page="1" pageScale="1" pageWidth="850" pageHeight="1100" math="0" shadow="0">
      <root>
        <mxCell id="0" />
        <mxCell id="1" parent="0" />
        <mxCell id="F-HoOkHhLVda9rOTIy93-9" value="" style="edgeStyle=orthogonalEdgeStyle;rounded=0;orthogonalLoop=1;jettySize=auto;html=1;" edge="1" parent="1" source="F-HoOkHhLVda9rOTIy93-1" target="F-HoOkHhLVda9rOTIy93-4">
          <mxGeometry relative="1" as="geometry" />
        </mxCell>
        <mxCell id="F-HoOkHhLVda9rOTIy93-1" value="Step 1" style="whiteSpace=wrap;html=1;aspect=fixed;" vertex="1" parent="1">
          <mxGeometry x="240" y="50" width="80" height="80" as="geometry" />
        </mxCell>
        <mxCell id="F-HoOkHhLVda9rOTIy93-2" value="Start" style="ellipse;whiteSpace=wrap;html=1;aspect=fixed;" vertex="1" parent="1">
          <mxGeometry x="70" y="50" width="80" height="80" as="geometry" />
        </mxCell>
        <mxCell id="F-HoOkHhLVda9rOTIy93-3" value="" style="endArrow=classic;html=1;rounded=0;exitX=1;exitY=0.5;exitDx=0;exitDy=0;entryX=0;entryY=0.5;entryDx=0;entryDy=0;" edge="1" parent="1" source="F-HoOkHhLVda9rOTIy93-2" target="F-HoOkHhLVda9rOTIy93-1">
          <mxGeometry width="50" height="50" relative="1" as="geometry">
            <mxPoint x="360" y="240" as="sourcePoint" />
            <mxPoint x="410" y="190" as="targetPoint" />
          </mxGeometry>
        </mxCell>
        <mxCell id="F-HoOkHhLVda9rOTIy93-11" value="" style="edgeStyle=orthogonalEdgeStyle;rounded=0;orthogonalLoop=1;jettySize=auto;html=1;" edge="1" parent="1" source="F-HoOkHhLVda9rOTIy93-4" target="F-HoOkHhLVda9rOTIy93-6">
          <mxGeometry relative="1" as="geometry" />
        </mxCell>
        <mxCell id="F-HoOkHhLVda9rOTIy93-4" value="Decide" style="rhombus;whiteSpace=wrap;html=1;" vertex="1" parent="1">
          <mxGeometry x="385" y="50" width="80" height="80" as="geometry" />
        </mxCell>
        <mxCell id="F-HoOkHhLVda9rOTIy93-6" value="End" style="ellipse;whiteSpace=wrap;html=1;aspect=fixed;" vertex="1" parent="1">
          <mxGeometry x="540" y="50" width="80" height="80" as="geometry" />
        </mxCell>
        <mxCell id="F-HoOkHhLVda9rOTIy93-7" value="Process 2" style="shape=process;whiteSpace=wrap;html=1;backgroundOutline=1;" vertex="1" parent="1">
          <mxGeometry x="365" y="220" width="120" height="60" as="geometry" />
        </mxCell>
        <mxCell id="F-HoOkHhLVda9rOTIy93-10" value="" style="endArrow=classic;html=1;rounded=0;entryX=0.5;entryY=0;entryDx=0;entryDy=0;exitX=0.5;exitY=1;exitDx=0;exitDy=0;" edge="1" parent="1" source="F-HoOkHhLVda9rOTIy93-4" target="F-HoOkHhLVda9rOTIy93-7">
          <mxGeometry width="50" height="50" relative="1" as="geometry">
            <mxPoint x="385" y="140" as="sourcePoint" />
            <mxPoint x="360" y="210" as="targetPoint" />
          </mxGeometry>
        </mxCell>
      </root>
    </mxGraphModel>
  </diagram>
</mxfile>
